<?xml version="1.0" standalone="no"?>
<!DOCTYPE svg PUBLIC "-//W3C//DTD SVG 20010904//EN"
 "http://www.w3.org/TR/2001/REC-SVG-20010904/DTD/svg10.dtd">
<svg version="1.0" xmlns="http://www.w3.org/2000/svg"
 width="326.000000pt" height="258.000000pt" viewBox="0 0 326.000000 258.000000"
 preserveAspectRatio="xMidYMid meet">
<metadata>
Created by potrace 1.16, written by Peter Selinger 2001-2019
</metadata>
<g transform="translate(0.000000,258.000000) scale(0.100000,-0.100000)"
fill="#000000" stroke="none">
<path d="M1520 2120 c-207 -21 -386 -94 -545 -221 -80 -65 -176 -183 -214
-266 -17 -36 -33 -55 -53 -64 -50 -20 -74 -67 -141 -269 -76 -227 -91 -313
-82 -449 7 -96 23 -141 50 -141 7 0 31 -10 51 -22 21 -12 61 -25 89 -29 27 -4
88 -14 135 -23 90 -18 194 -14 260 8 31 11 41 9 94 -16 33 -15 61 -26 62 -25
1 1 -5 35 -13 76 -12 59 -13 88 -5 139 13 76 7 88 -75 148 -38 27 -49 41 -42
50 14 17 97 50 142 57 l37 6 0 -81 c0 -44 -7 -105 -16 -136 -43 -148 25 -352
133 -398 46 -20 440 -20 486 0 111 47 180 258 133 408 -11 35 -16 78 -14 128
l3 75 35 -3 c41 -4 124 -38 140 -57 8 -10 3 -18 -22 -33 -18 -12 -50 -38 -70
-59 l-37 -38 11 -67 c10 -55 9 -79 -4 -140 -9 -40 -15 -74 -14 -75 1 -1 29 10
62 25 56 26 61 27 99 14 50 -18 235 -20 290 -3 22 7 69 16 104 21 38 5 76 17
92 29 16 12 34 21 42 21 32 0 45 34 52 141 10 143 -3 214 -82 452 -67 203 -89
244 -140 266 -20 8 -39 33 -66 85 -130 253 -417 432 -748 466 -109 11 -108 11
-219 0z m325 -240 c140 -45 265 -124 342 -217 62 -75 76 -100 65 -118 -7 -14
-13 -9 -36 29 -38 64 -142 164 -217 209 -184 108 -432 127 -634 48 -127 -49
-247 -144 -316 -252 -26 -39 -35 -46 -41 -34 -20 34 119 190 226 254 71 42
158 77 238 96 93 21 283 14 373 -15z m-46 -36 c31 -8 90 -31 131 -51 135 -67
309 -268 280 -323 -12 -23 -5 -60 12 -60 5 0 8 -6 5 -14 -3 -8 1 -20 9 -26 8
-7 14 -9 15 -4 4 31 17 -54 18 -112 1 -62 -29 -217 -44 -233 -3 -3 -18 3 -33
13 -50 32 -116 59 -158 64 l-41 4 -5 62 c-10 118 -80 221 -187 273 -51 25 -66
28 -166 28 -98 0 -116 -3 -165 -26 -31 -14 -72 -41 -93 -58 -50 -45 -97 -144
-104 -220 -6 -58 -7 -61 -33 -61 -37 0 -107 -25 -153 -56 -21 -14 -42 -22 -47
-19 -15 9 -40 103 -46 176 -9 93 2 156 27 164 11 4 18 12 16 18 -2 7 3 20 11
30 13 15 14 23 4 49 -10 28 -8 37 19 84 141 246 443 370 728 298z m-802 -334
c18 -30 32 -61 31 -68 -2 -8 -30 -25 -63 -38 l-59 -24 -26 26 -25 26 28 -6
c19 -5 26 -3 22 4 -9 14 -45 12 -75 -5 -30 -17 -82 -19 -96 -5 -8 8 -13 -16
-17 -77 -4 -48 -18 -153 -32 -232 -16 -88 -23 -155 -19 -170 6 -20 9 -9 15 47
7 73 45 169 64 165 18 -3 36 -97 32 -160 -7 -103 -75 -193 -145 -193 -17 0
-34 4 -37 10 -3 6 -12 10 -18 10 -7 -1 -1 -10 12 -20 62 -52 151 1 236 142 58
96 231 84 281 -20 29 -62 -8 -122 -106 -172 -124 -63 -410 -64 -473 -1 -8 8
-11 60 -11 164 l0 152 72 217 c79 235 95 261 165 272 18 3 43 7 57 10 14 2 54
3 89 2 l65 -1 33 -55z m1543 35 c49 -26 69 -63 136 -269 l67 -201 3 -151 c3
-112 0 -156 -10 -169 -26 -36 -84 -49 -221 -49 -146 0 -210 14 -287 63 -113
72 -110 168 7 222 92 43 179 10 227 -86 11 -22 30 -51 42 -63 27 -31 88 -62
119 -62 24 0 83 39 60 40 -6 0 -15 -4 -18 -10 -3 -5 -22 -10 -41 -10 -27 0
-42 9 -74 41 -67 70 -86 181 -49 289 l12 33 18 -22 c26 -31 49 -115 49 -173 0
-30 4 -47 10 -43 15 10 12 54 -14 198 -14 73 -28 172 -32 220 -5 62 -10 85
-17 78 -15 -15 -67 -13 -97 4 -30 17 -66 19 -75 5 -4 -7 3 -9 22 -4 l28 6 -25
-26 -26 -26 -59 24 c-33 13 -61 29 -63 34 -3 10 37 88 62 121 14 18 205 7 246
-14z m-802 -246 c72 -35 127 -146 88 -178 -13 -11 -23 -10 -58 4 -24 9 -74 19
-113 22 -65 4 -92 -1 -192 -32 -57 -18 -48 89 12 150 65 65 170 78 263 34z
m14 -280 c38 -19 56 -54 44 -84 -7 -18 -47 -35 -85 -35 -39 0 -113 41 -131 72
-13 24 -13 29 4 47 32 35 99 35 168 0z"/>
<path d="M1508 1793 c-10 -2 -18 -7 -18 -9 0 -3 18 -41 41 -85 34 -65 40 -87
37 -124 -3 -45 -3 -45 29 -45 l33 0 0 55 c0 45 8 71 40 136 l41 80 -37 -3
c-35 -3 -39 -6 -53 -50 -17 -51 -31 -71 -31 -45 0 9 -7 35 -16 57 -16 39 -25
44 -66 33z"/>
<path d="M1746 1758 c-3 -18 -8 -79 -11 -135 l-7 -103 31 0 31 0 0 87 c0 49 4
83 9 78 4 -6 16 -48 26 -95 10 -47 23 -88 29 -92 30 -20 43 -7 67 70 l24 77 3
-97 c3 -97 3 -98 32 -113 16 -8 30 -15 32 -15 2 0 0 62 -5 138 -7 125 -10 139
-30 154 -47 36 -55 31 -77 -42 -11 -37 -20 -73 -20 -81 -1 -31 -17 18 -34 102
-17 83 -19 87 -48 93 -46 9 -47 9 -52 -26z"/>
<path d="M1435 1775 c-5 -2 -22 -6 -38 -9 -38 -9 -106 -73 -128 -121 -22 -46
-25 -133 -6 -159 17 -23 63 -23 124 -1 81 29 84 33 81 113 l-3 69 -47 -14
c-41 -12 -48 -17 -48 -39 0 -21 4 -24 20 -19 17 5 20 2 20 -23 0 -32 -14 -42
-56 -42 -41 0 -53 72 -22 133 12 24 67 57 94 57 14 0 24 8 28 23 10 38 8 41
-19 32z"/>
</g>
</svg>
